# xmcd CD database file
#
# Track frame offsets:
#	150
#	17157
#	35202
#	51802
#	64457
#	81117
#	98207
#	113747
#	127200
#	142127
#	162387
#	178090
#
# Disc length: 2555 seconds
#
# Revision: 0
# Processed by: cddbd v1.5.1PL0 Copyright (c) Steve Scherf et al.
# Submitted via: CDex 1.51
#
DISCID=b509f90c
DTITLE=Britta T. - Rainbows
DYEAR=1991
DGENRE=Country
TTITLE0=This One
TTITLE1=Desperado
TTITLE2=I Wan't Stand Still
TTITLE3=Owertime
TTITLE4=A Rainbow Of Your Own
TTITLE5=Diggin'
TTITLE6=Take Another Run
TTITLE7=Old Boyfriends
TTITLE8=You Make Me Feel Like A Woman
TTITLE9=Losing You
TTITLE10=Night In The City
TTITLE11=Oh What a love
EXTD=YEAR: 1991
EXTT0=
EXTT1=
EXTT2=
EXTT3=
EXTT4=
EXTT5=
EXTT6=
EXTT7=
EXTT8=
EXTT9=
EXTT10=
EXTT11=
PLAYORDER=
